<svg width="48" height="48" viewBox="0 0 48 48" fill="none" xmlns="http://www.w3.org/2000/svg">
<path d="M30.466 10.976C28.78 10.9 28.272 10.884 24 10.884C19.728 10.884 19.222 10.9 17.536 10.976C13.196 11.174 11.174 13.23 10.978 17.534C10.9 19.222 10.882 19.728 10.882 24C10.882 28.272 10.9 28.778 10.976 30.466C11.174 34.762 13.188 36.826 17.534 37.024C19.22 37.1 19.728 37.118 24 37.118C28.274 37.118 28.78 37.102 30.466 37.026C34.806 36.828 36.826 34.768 37.024 30.468C37.1 28.78 37.116 28.274 37.116 24.002C37.116 19.73 37.1 19.224 37.024 17.538C36.826 13.232 34.802 11.174 30.466 10.976ZM24 32.216C19.462 32.216 15.784 28.538 15.784 24C15.784 19.462 19.464 15.784 24 15.784C28.536 15.784 32.216 19.462 32.216 24C32.216 28.538 28.538 32.216 24 32.216ZM32.542 17.38C31.482 17.38 30.622 16.52 30.622 15.46C30.622 14.4 31.482 13.54 32.542 13.54C33.602 13.54 34.462 14.4 34.462 15.46C34.462 16.52 33.602 17.38 32.542 17.38ZM29.334 24C29.334 26.946 26.946 29.334 24 29.334C21.054 29.334 18.666 26.946 18.666 24C18.666 21.054 21.054 18.666 24 18.666C26.946 18.666 29.334 21.054 29.334 24ZM38 0H10C4.478 0 0 4.478 0 10V38C0 43.522 4.478 48 10 48H38C43.524 48 48 43.522 48 38V10C48 4.478 43.524 0 38 0ZM39.904 30.596C39.64 36.414 36.402 39.638 30.598 39.904C28.89 39.982 28.346 40 24 40C19.654 40 19.112 39.982 17.404 39.904C11.588 39.638 8.364 36.408 8.096 30.596C8.018 28.89 8 28.346 8 24C8 19.656 8.018 19.11 8.096 17.404C8.364 11.588 11.592 8.362 17.404 8.098C19.112 8.018 19.654 8 24 8C28.346 8 28.89 8.018 30.598 8.096C36.414 8.362 39.644 11.598 39.904 17.402C39.982 19.11 40 19.656 40 24C40 28.346 39.982 28.89 39.904 30.596Z" fill="url(#paint0_linear)"/>
<defs>
<linearGradient id="paint0_linear" x1="52.5" y1="3.5" x2="1.5" y2="45" gradientUnits="userSpaceOnUse">
<stop stop-color="#B508F2"/>
<stop offset="0.53125" stop-color="#EC4A4B"/>
<stop offset="1" stop-color="#EEFC50"/>
</linearGradient>
</defs>
</svg>
